<svg width="24" height="24" version="1.1" viewBox="0 0 24 24" xmlns="http://www.w3.org/2000/svg">
    <path d="m11.1 11.4-7.65-4.74v10.1h11.2v1.31h-11.2c-0.375 0-0.705-0.135-0.99-0.404-0.285-0.27-0.428-0.571-0.428-0.906v-11.4c0-0.334 0.135-0.637 0.405-0.906s0.585-0.404 0.945-0.404h15.3c0.345 0 0.656 0.135 0.934 0.404s0.416 0.571 0.416 0.906v5.24h-1.35v-3.93zm0-1.4 7.65-4.65h-15.3zm-7.65-3.34v-1.31 11.4-5.46z"/>
    <path d="m19 22c-0.862 0-1.58-0.303-2.17-0.91-0.585-0.606-0.877-1.33-0.877-2.18v-5.09c0-0.5 0.181-0.929 0.542-1.28 0.361-0.352 0.804-0.534 1.33-0.534 0.508 0 0.938 0.178 1.29 0.534 0.352 0.356 0.531 0.785 0.531 1.28v5.23h-1.38v-5.3c0-0.167-0.0346-0.314-0.104-0.443-0.0692-0.129-0.181-0.193-0.335-0.193-0.154 0-0.273 0.0644-0.358 0.193-0.0846 0.129-0.127 0.277-0.127 0.443v5.2c0 0.5 0.154 0.94 0.462 1.32 0.308 0.379 0.708 0.568 1.2 0.568 0.462 0 0.838-0.178 1.13-0.534 0.292-0.356 0.438-0.778 0.438-1.26v-4.48h1.38v4.48c0 0.819-0.285 1.52-0.854 2.09-0.569 0.576-1.27 0.865-2.1 0.865z"/>
</svg>