<svg fill="#ffffff" width="24" height="24" version="1.1" viewBox="0 0 24 24" xmlns="http://www.w3.org/2000/svg">
    <path d="m12.1 20c-0.641-0.324-1.38-0.947-1.5-1.71 0.118-0.753 0.918-1.11 1.35-1.67 1.06-1.05 2.14-2.08 3.18-3.13-3.51-0.0658-6.99 0.015-10.5-0.0528-0.706-0.193-0.641-1.03-0.618-1.62-0.0227-0.414-0.0184-0.906 0.396-1.14 0.406-0.239 0.898-0.0782 1.34-0.126 3.13-0.0134 6.26 0.0159 9.36-0.0334-1.44-1.45-2.93-2.85-4.36-4.3-0.583-0.792 0.378-1.44 0.855-1.94 0.383-0.448 1.08-0.287 1.38 0.169 2.3 2.37 4.62 4.71 6.89 7.09 0.474 0.787-0.439 1.34-0.875 1.85-2.09 2.15-4.16 4.3-6.28 6.45-0.185 0.15-0.424 0.201-0.653 0.172z"
          stroke-width="2.56"/>
</svg>
