<?xml version="1.0" encoding="utf-8"?>
<!-- Generator: Adobe Illustrator 28.0.0, SVG Export Plug-In . SVG Version: 6.00 Build 0)  -->
<svg version="1.1" id="Capa_1" xmlns="http://www.w3.org/2000/svg" x="0px" y="0px"
	 viewBox="0 0 16 16" style="enable-background:new 0 0 16 16;" xml:space="preserve">
<style type="text/css">
	.st0{fill:#E87722;}
	.st1{fill:#FFFFFF;}
</style>
	<circle class="st0" cx="8" cy="8" r="8"/>
	<path class="st1" d="M5.3,5.8C5.2,5.9,5.4,6,5.5,6l0,0h0.8c0.1,0,0.2-0.1,0.3-0.2c0.1-0.7,0.5-1.1,1.3-1.1c0.7,0,1.3,0.3,1.3,1.2
	c0,0.6-0.4,0.9-1,1.4C7.5,7.8,7,8.4,7,9.3v0.2c0,0.1,0.1,0.2,0.2,0.2H8c0.1,0,0.2-0.1,0.2-0.2V9.3c0-0.7,0.3-0.9,1-1.5
	c0.6-0.5,1.2-1,1.2-2.1c0-1.5-1.3-2.2-2.7-2.2C6.7,3.5,5.3,4.1,5.3,5.8z M6.8,11.5c0,0.5,0.4,0.9,1,0.9s1-0.4,1-0.9
	c0-0.6-0.4-0.9-1-0.9S6.8,11,6.8,11.5z"/>
</svg>
