<?xml version="1.0" encoding="utf-8"?>
<!-- Generator: Adobe Illustrator 25.0.0, SVG Export Plug-In . SVG Version: 6.00 Build 0)  -->
<!--suppress ALL -->
<svg version="1.1" id="Capa_1" xmlns="http://www.w3.org/2000/svg" xmlns:xlink="http://www.w3.org/1999/xlink" x="0px" y="0px"
	 viewBox="0 0 89.4 76.7" style="enable-background:new 0 0 89.4 76.7;" xml:space="preserve">
<style type="text/css">
	.st0{fill:#FFFFFF;}
</style>
<g>
	<path class="st0" d="M58.4,13.8L44.8,0.2L31.2,13.8L17.4,0L0,17.4l31,31l13.6-13.6l13.8,13.8l31-31L72,0.2L58.4,13.8z M31,40.8
		L7.7,17.4l9.8-9.8l9.9,9.9l0,0l13.4,13.4L31,40.8z M58.4,41l-9.9-9.9l0,0L35,17.6l9.7-9.7l13.6,13.6L72,7.9l9.8,9.8L58.4,41z"/>
	<g>
		<path class="st0" d="M11.8,69.1l-0.8,2.4l-1.3,4.2c-0.1,0.2-0.2,0.4-0.3,0.6c-0.1,0.1-0.4,0.2-0.8,0.2H6c-0.4,0-0.6-0.1-0.8-0.2
			c-0.2-0.1-0.3-0.3-0.4-0.6l-4.7-17c-0.1-0.2-0.1-0.4,0-0.5C0.2,58.1,0.3,58,0.6,58h3.2c0.3,0,0.5,0.1,0.7,0.2
			c0.1,0.1,0.2,0.3,0.3,0.6c0.3,1.3,0.6,2.5,0.9,3.5c0.1,0.4,0.2,0.9,0.3,1.3c0.1,0.4,0.2,0.8,0.3,1.2c0.1,0.4,0.2,0.7,0.2,0.9
			c0.1,0.2,0.1,0.4,0.1,0.4l1,4.3h0.1l0.9-3c0-0.1,0.1-0.3,0.2-0.8c0.1-0.5,0.3-1,0.4-1.5c0.2-0.6,0.3-1.1,0.5-1.5
			c0.1-0.5,0.2-0.7,0.2-0.8l-1.3-4.1c-0.1-0.2-0.1-0.3,0-0.5C8.7,58.1,8.8,58,9,58h2.9c0.3,0,0.5,0.1,0.7,0.2
			c0.2,0.1,0.3,0.3,0.3,0.6c0.4,1.4,0.7,2.7,1,3.8c0.1,0.5,0.3,1,0.4,1.4c0.1,0.5,0.2,0.9,0.3,1.3s0.2,0.7,0.3,1
			c0.1,0.2,0.1,0.4,0.1,0.5l0.9,3.7h0.1l0.8-4.1c0-0.1,0.1-0.2,0.1-0.5c0.1-0.2,0.1-0.6,0.2-0.9c0.1-0.4,0.2-0.8,0.3-1.2
			c0.1-0.5,0.2-0.9,0.3-1.4c0.3-1.1,0.5-2.3,0.9-3.7c0.1-0.3,0.2-0.5,0.4-0.6c0.2-0.1,0.4-0.2,0.7-0.2h3c0.3,0,0.4,0.1,0.5,0.2
			c0.1,0.1,0,0.3,0,0.5l-4.5,16.9c-0.1,0.3-0.2,0.5-0.4,0.6c-0.2,0.1-0.4,0.2-0.8,0.2h-2.5c-0.4,0-0.7-0.1-0.8-0.2
			c-0.1-0.1-0.3-0.3-0.3-0.6l-1.3-4.2L12,69.1H11.8z"/>
		<path class="st0" d="M28.5,70.6c0,0.5,0.1,1,0.2,1.3c0.1,0.3,0.3,0.6,0.6,0.8c0.2,0.2,0.6,0.3,0.9,0.4c0.4,0.1,0.8,0.1,1.2,0.1
			c0.4,0,0.9,0,1.5-0.1c0.6-0.1,1.2-0.1,1.7-0.2c0.4,0,0.6,0,0.7,0c0.1,0,0.2,0.2,0.2,0.6l0.2,1.3c0.1,0.3,0.1,0.6,0,0.7
			c-0.1,0.2-0.3,0.3-0.7,0.5c-0.3,0.1-0.6,0.2-1,0.3c-0.4,0.1-0.8,0.2-1.2,0.2c-0.4,0.1-0.8,0.1-1.2,0.1c-0.4,0-0.8,0-1.1,0
			c-1.4,0-2.5-0.2-3.4-0.6c-0.9-0.4-1.5-0.9-2-1.5c-0.5-0.6-0.8-1.4-1-2.2c-0.2-0.8-0.2-1.7-0.2-2.6c0-0.7,0.1-1.4,0.2-2.2
			s0.4-1.6,0.8-2.4c0.4-0.7,1.1-1.4,1.9-1.9c0.8-0.5,2-0.7,3.5-0.7c1.3,0,2.4,0.2,3.2,0.6c0.8,0.4,1.4,0.9,1.9,1.5
			c0.5,0.6,0.8,1.3,0.9,2c0.2,0.7,0.2,1.5,0.2,2.2c0,0.6-0.1,1-0.3,1.3s-0.6,0.5-1.2,0.5H28.5z M30.5,65.8c-0.6,0-1.1,0.2-1.4,0.6
			c-0.3,0.4-0.5,1-0.5,1.8h3.9c0-0.7-0.1-1.2-0.4-1.7C31.7,66,31.2,65.8,30.5,65.8z"/>
		<path class="st0" d="M43.5,64.7L43.5,64.7c0.3-0.2,0.6-0.4,0.9-0.7c0.3-0.2,0.7-0.4,1.1-0.6c0.4-0.2,0.7-0.4,1.1-0.5
			c0.4-0.1,0.7-0.2,1-0.3c0.3,0,0.5,0,0.7,0c0.1,0.1,0.2,0.3,0.3,0.6l0.3,2.7c0,0.1,0,0.2,0,0.3c0,0.1,0,0.2-0.1,0.2
			c-0.1,0.1-0.1,0.1-0.2,0.2c-0.1,0-0.3,0.1-0.5,0.1c-1.7,0.3-3.2,0.7-4.5,1.2v7.8c0,0.1,0,0.3-0.1,0.4c-0.1,0.1-0.2,0.2-0.5,0.2h-3
			c-0.2,0-0.4-0.1-0.5-0.2c-0.1-0.1-0.1-0.3-0.1-0.4V63.4c0-0.2,0-0.3,0.1-0.4c0.1-0.1,0.2-0.2,0.5-0.2h3c0.3,0,0.4,0.1,0.5,0.2
			c0.1,0.1,0.1,0.3,0.1,0.4V64.7z"/>
		<path class="st0" d="M56.2,75.8c0,0.1,0,0.3-0.1,0.4c-0.1,0.1-0.2,0.2-0.5,0.2h-3c-0.2,0-0.4-0.1-0.5-0.2C52,76.2,52,76,52,75.8
			v-9.7h-1.2c-0.4,0-0.6-0.2-0.6-0.6v-2.1c0-0.4,0.2-0.6,0.6-0.6H52v-1.3c0-1.5,0.4-2.7,1.3-3.5c0.9-0.9,2.2-1.3,4.1-1.3
			c0.3,0,0.6,0,0.9,0c0.3,0,0.7,0.1,1,0.1c0.3,0.1,0.7,0.1,1,0.2c0.4,0.1,0.7,0.2,1,0.3c0.3,0.1,0.5,0.3,0.5,0.5c0,0.2,0,0.4,0,0.5
			L61.4,60c-0.1,0.2-0.1,0.3-0.3,0.4c-0.1,0-0.3,0-0.7,0c-0.5-0.1-1-0.1-1.5-0.2c-0.5,0-0.8,0-0.9,0c-0.7,0-1.2,0.2-1.5,0.5
			s-0.4,0.8-0.4,1.4v0.7h3c0.3,0,0.4,0.1,0.5,0.2c0.1,0.1,0.1,0.2,0.1,0.4v2.1c0,0.2,0,0.4-0.1,0.5c-0.1,0.1-0.2,0.2-0.5,0.2h-3
			V75.8z"/>
		<path class="st0" d="M66,70.6c0,0.5,0.1,1,0.2,1.3c0.1,0.3,0.3,0.6,0.6,0.8c0.2,0.2,0.6,0.3,0.9,0.4c0.4,0.1,0.8,0.1,1.2,0.1
			c0.4,0,0.9,0,1.5-0.1c0.6-0.1,1.2-0.1,1.7-0.2c0.4,0,0.6,0,0.7,0c0.1,0,0.2,0.2,0.2,0.6l0.2,1.3c0.1,0.3,0.1,0.6,0,0.7
			c-0.1,0.2-0.3,0.3-0.7,0.5c-0.3,0.1-0.6,0.2-1,0.3c-0.4,0.1-0.8,0.2-1.2,0.2c-0.4,0.1-0.8,0.1-1.2,0.1c-0.4,0-0.8,0-1.1,0
			c-1.4,0-2.5-0.2-3.4-0.6c-0.9-0.4-1.5-0.9-2-1.5c-0.5-0.6-0.8-1.4-1-2.2c-0.2-0.8-0.2-1.7-0.2-2.6c0-0.7,0.1-1.4,0.2-2.2
			c0.1-0.8,0.4-1.6,0.8-2.4c0.4-0.7,1.1-1.4,1.9-1.9c0.8-0.5,2-0.7,3.5-0.7c1.3,0,2.4,0.2,3.2,0.6c0.8,0.4,1.4,0.9,1.9,1.5
			c0.5,0.6,0.8,1.3,0.9,2c0.2,0.7,0.2,1.5,0.2,2.2c0,0.6-0.1,1-0.3,1.3c-0.2,0.3-0.6,0.5-1.2,0.5H66z M68,65.8
			c-0.6,0-1.1,0.2-1.4,0.6c-0.3,0.4-0.5,1-0.5,1.8h3.9c0-0.7-0.1-1.2-0.4-1.7C69.3,66,68.8,65.8,68,65.8z"/>
		<path class="st0" d="M89.3,76.3c-0.1,0.1-0.2,0.2-0.5,0.2h-3c-0.4,0-0.6-0.2-0.6-0.6c0-1.2,0-2.4,0-3.6c0-1.2,0-2.4,0-3.6
			c0-0.8-0.1-1.3-0.4-1.6c-0.3-0.3-0.7-0.5-1.3-0.5c-0.4,0-0.9,0.1-1.4,0.3c-0.5,0.2-0.9,0.4-1.3,0.5v8.6c0,0.1,0,0.3-0.1,0.4
			c-0.1,0.1-0.2,0.2-0.5,0.2h-3c-0.2,0-0.4-0.1-0.5-0.2c-0.1-0.1-0.1-0.2-0.1-0.4V63.4c0-0.2,0-0.3,0.1-0.4c0.1-0.1,0.2-0.2,0.5-0.2
			h3c0.3,0,0.4,0.1,0.5,0.2c0.1,0.1,0.1,0.3,0.1,0.4v0.7c0,0,0,0,0,0c0,0,0,0,0,0c0.6-0.5,1.3-0.8,2.1-1.1c0.8-0.3,1.6-0.4,2.2-0.4
			c1,0,1.8,0.2,2.3,0.5c0.6,0.3,1,0.7,1.3,1.3c0.3,0.5,0.4,1.1,0.5,1.8c0.1,0.6,0.1,1.3,0.1,1.9v7.9C89.4,76,89.4,76.2,89.3,76.3z"
			/>
	</g>
</g>
</svg>
