<?xml version="1.0" standalone="no"?>
<!DOCTYPE svg PUBLIC "-//W3C//DTD SVG 20010904//EN"
        "http://www.w3.org/TR/2001/REC-SVG-20010904/DTD/svg10.dtd">
<svg version="1.0" xmlns="http://www.w3.org/2000/svg"
     width="256.000000pt" height="256.000000pt" viewBox="0 0 256.000000 256.000000"
     preserveAspectRatio="xMidYMid meet">
    <metadata>
        Created by potrace 1.14, written by Peter Selinger 2001-2017
    </metadata>
    <g transform="translate(0.000000,256.000000) scale(0.100000,-0.100000)"
       fill="#000000" stroke="none">
        <path d="M208 1787 c15 -34 126 -291 247 -570 l220 -507 146 0 c108 0 148 3
152 13 2 6 55 140 117 297 62 157 132 336 155 399 l42 113 21 -63 c12 -35 84
-220 159 -411 l138 -348 145 0 146 0 239 563 c131 309 240 565 242 570 2 4
-72 7 -165 7 l-169 0 -53 -137 c-29 -76 -96 -254 -150 -396 l-97 -258 -23 63
c-12 35 -81 213 -153 396 l-131 332 -150 -2 -151 -3 -107 -270 c-59 -148 -126
-323 -149 -387 -24 -65 -46 -118 -50 -118 -3 0 -16 28 -29 63 -12 34 -81 209
-152 390 l-131 327 -168 0 -168 0 27 -63z"/>
    </g>
</svg>
